<?xml version="1.0" encoding="UTF-8" standalone="no"?>
<svg width="1200" height="900" xmlns="http://www.w3.org/2000/svg">

  <style>
    .bg { fill:#0b0f19; }
    .box { fill:#111827; stroke:#22d3ee; stroke-width:2; rx:12; }
    .text { fill:#e5e7eb; font-family:monospace; font-size:14px; }
    .title { fill:#22d3ee; font-size:26px; font-weight:bold; }
    .arrow { stroke:#22d3ee; stroke-width:2; fill:none; }
    .flow {
      stroke-dasharray: 8;
      animation: dash 2s linear infinite;
    }

    @keyframes dash {
      to { stroke-dashoffset: -16; }
    }

    .glow {
      filter: drop-shadow(0 0 8px #22d3ee);
    }
  </style>

  <!-- Background -->
  <rect width="100%" height="100%" class="bg"/>

  <!-- Title -->
  <text x="300" y="50" class="title glow">
    TITAN_v8∞∞ — Autonomous Intelligence Engine
  </text>

  <!-- CLI -->
  <rect x="450" y="100" width="300" height="70" class="box glow"/>
  <text x="520" y="140" class="text">CLI Entry</text>
  <text x="510" y="160" class="text">./titan scan target</text>

  <!-- Atlas -->
  <rect x="450" y="230" width="300" height="80" class="box glow"/>
  <text x="520" y="265" class="text">Atlas AI</text>
  <text x="490" y="285" class="text">Autonomous Planning Engine</text>

  <!-- Discovery -->
  <rect x="100" y="400" width="250" height="90" class="box glow"/>
  <text x="160" y="430" class="text">Orion AI</text>
  <text x="140" y="450" class="text">Passive + Active Discovery</text>
  <text x="140" y="470" class="text">(gau, katana)</text>

  <!-- Logic -->
  <rect x="475" y="400" width="250" height="110" class="box glow"/>
  <text x="550" y="430" class="text">Logos AI</text>
  <text x="520" y="450" class="text">Structural Diff</text>
  <text x="520" y="470" class="text">Access Control Detection</text>
  <text x="520" y="490" class="text">Evidence Engine</text>

  <!-- Risk -->
  <rect x="850" y="400" width="250" height="90" class="box glow"/>
  <text x="920" y="430" class="text">RiskOS</text>
  <text x="900" y="450" class="text">Severity Classification</text>
  <text x="900" y="470" class="text">P0 → P4</text>

  <!-- Core -->
  <rect x="300" y="600" width="600" height="150" class="box glow"/>
  <text x="500" y="630" class="text">Core Infrastructure</text>
  <text x="400" y="660" class="text">HTTP Engine | Defense Monitor | State Graph</text>
  <text x="400" y="680" class="text">Negative Memory | Global Learning</text>
  <text x="400" y="700" class="text">Coverage Control | Storage Engine</text>

  <!-- Animated Arrows -->

  <line x1="600" y1="170" x2="600" y2="230" class="arrow flow"/>
  <line x1="600" y1="310" x2="225" y2="400" class="arrow flow"/>
  <line x1="600" y1="310" x2="600" y2="400" class="arrow flow"/>
  <line x1="600" y1="310" x2="975" y2="400" class="arrow flow"/>

  <line x1="600" y1="510" x2="600" y2="600" class="arrow flow"/>

</svg>
